####
#
# OBJ File Generated by Meshlab
#
####
# Object door-blank_convex.obj
#
# Vertices: 27
# Faces: 50
#
####
mtllib ./door-blank_convex.obj.mtl

vn -0.539115 0.569336 0.620655
v -0.540698 0.140488 0.730912 0.874510 0.909804 0.631373
vn -0.538776 -0.639525 0.548387
v -0.518874 0.057235 0.715266 0.874510 0.909804 0.631373
vn 0.126663 0.781997 -0.610277
v 0.011354 -0.155545 -0.975378 0.858824 0.874510 0.549020
vn 0.180650 0.889731 -0.419219
v -0.411055 -0.063445 -0.974308 0.858824 0.874510 0.537255
vn 0.514293 -0.780674 -0.355035
v 0.140198 -0.289987 -0.977450 0.858824 0.874510 0.537255
vn 0.847231 0.423212 -0.321077
v 0.160361 -0.178336 -0.984540 0.866667 0.874510 0.556863
vn 0.197174 0.975341 -0.099153
v -0.269175 0.087719 0.447602 0.882353 0.901961 0.709804
vn -0.605519 -0.670456 -0.428761
v -0.646499 -0.142547 -0.974676 0.858824 0.866667 0.537255
vn 0.841968 0.526754 -0.116711
v 0.244807 -0.041132 0.420146 0.874510 0.909804 0.654902
vn -0.251133 0.959911 -0.124513
v -0.554641 0.104972 0.046950 0.874510 0.901961 0.674510
vn 0.538867 -0.840544 0.055745
v 0.160649 -0.261612 -0.436516 0.874510 0.909804 0.631373
vn 0.161974 0.746290 0.645612
v -0.100526 0.084499 0.724102 0.874510 0.909804 0.631373
vn -0.207135 -0.965343 0.158772
v -0.010696 -0.157749 -0.041680 0.882353 0.901961 0.701961
vn 0.581990 -0.812671 0.029212
v 0.156748 -0.263121 -0.603460 0.874510 0.909804 0.631373
vn 0.203725 0.972216 -0.115294
v 0.020948 -0.065390 -0.306436 0.882353 0.901961 0.701961
vn 0.219708 0.965086 -0.142611
v -0.024246 -0.023557 -0.008535 0.874510 0.909804 0.631373
vn 0.242229 0.180373 -0.953305
v 0.152073 -0.224468 -0.996933 0.866667 0.886275 0.564706
vn 0.333965 -0.939457 0.076736
v 0.211074 -0.156219 0.316609 0.882353 0.901961 0.721569
vn 0.841338 0.531950 -0.095810
v 0.197217 -0.105362 -0.233929 0.874510 0.909804 0.631373
vn 0.731570 -0.551457 0.400875
v 0.246842 -0.131887 0.722350 0.874510 0.909804 0.639216
vn -0.800365 -0.585627 0.128286
v -0.599099 -0.061827 -0.175529 0.874510 0.901961 0.631373
vn -0.277573 0.658830 -0.699211
v -0.635371 -0.025300 -0.990654 0.858824 0.866667 0.529412
vn 0.529528 0.629641 0.568465
v 0.270032 -0.014852 0.711425 0.874510 0.909804 0.639216
vn -0.440239 0.891797 -0.104342
v -0.565569 0.063397 -0.094428 0.866667 0.886275 0.584314
vn -0.202689 -0.972166 0.117519
v -0.083116 -0.194507 -0.323630 0.882353 0.901961 0.701961
vn -0.144016 -0.989516 0.010834
v 0.012014 -0.281330 -0.920503 0.866667 0.882353 0.556863
vn -0.142078 -0.645824 0.750150
v -0.172475 -0.005572 0.732080 0.874510 0.909804 0.631373
# 27 vertices, 0 vertices normals


usemtl material_0
f 1//1 7//7 10//10
f 19//19 16//16 9//9
f 16//16 10//10 9//9
f 7//7 9//9 10//10
f 9//9 18//18 11//11
f 1//1 10//10 21//21
f 25//25 26//26 14//14
f 2//2 21//21 27//27
f 21//21 2//2 1//1
f 16//16 19//19 15//15
f 15//15 24//24 16//16
f 8//8 26//26 25//25
f 1//1 12//12 7//7
f 12//12 27//27 23//23
f 21//21 13//13 27//27
f 15//15 3//3 4//4
f 12//12 23//23 7//7
f 7//7 23//23 9//9
f 3//3 15//15 6//6
f 17//17 5//5 8//8
f 22//22 8//8 24//24
f 19//19 9//9 11//11
f 6//6 14//14 5//5
f 24//24 10//10 16//16
f 21//21 10//10 24//24
f 13//13 11//11 18//18
f 19//19 11//11 14//14
f 24//24 8//8 21//21
f 19//19 6//6 15//15
f 15//15 4//4 24//24
f 25//25 21//21 8//8
f 1//1 2//2 27//27
f 11//11 13//13 25//25
f 6//6 19//19 14//14
f 4//4 22//22 24//24
f 18//18 27//27 13//13
f 27//27 20//20 23//23
f 20//20 18//18 9//9
f 21//21 25//25 13//13
f 23//23 20//20 9//9
f 12//12 1//1 27//27
f 3//3 6//6 17//17
f 17//17 4//4 3//3
f 22//22 17//17 8//8
f 4//4 17//17 22//22
f 8//8 5//5 26//26
f 6//6 5//5 17//17
f 14//14 11//11 25//25
f 14//14 26//26 5//5
f 27//27 18//18 20//20
# 50 faces, 0 coords texture

# End of File
