####
#
# OBJ File Generated by Meshlab
#
####
# Object door-knob-plate_low.obj
#
# Vertices: 84
# Faces: 164
#
####
mtllib ./door-knob-plate_low.obj.mtl

vn 0.158786 -0.538781 0.827347
v 0.123776 -0.199277 0.088158 0.894118 0.886275 0.639216
vn 0.114731 0.958023 -0.262733
v 0.074578 -0.165766 0.035531 0.674510 0.576471 0.019608
vn 0.080855 0.981109 -0.175751
v 0.127813 -0.164006 0.071699 0.686275 0.600000 0.031373
vn 0.153227 0.941114 -0.301374
v 0.026492 -0.176010 -0.020762 0.674510 0.576471 0.019608
vn 0.564091 -0.787387 0.248644
v 0.136227 -0.240512 -0.059193 0.741176 0.674510 0.203922
vn 0.834127 0.539166 -0.116328
v 0.142760 -0.213733 -0.073510 0.682353 0.592157 0.019608
vn -0.012921 0.855659 0.517378
v 0.049409 -0.151805 0.076306 0.737255 0.674510 0.086275
vn -0.004864 -0.971028 0.238915
v 0.133349 -0.247116 -0.083127 0.819608 0.784314 0.368627
vn 0.883476 -0.188106 0.429054
v 0.128243 -0.191451 0.086833 0.913725 0.909804 0.686275
vn 0.112620 0.943969 -0.310226
v 0.051495 -0.188723 -0.042197 0.674510 0.576471 0.019608
vn -0.656007 0.716914 -0.235983
v 0.013401 -0.174517 -0.012278 0.721569 0.647059 0.003922
vn -0.348003 0.895650 -0.276957
v 0.015442 -0.175320 -0.021783 0.709804 0.627451 0.003922
vn -0.548213 -0.678399 0.489119
v 0.002924 -0.183669 0.071763 0.819608 0.784314 0.266667
vn -0.506507 -0.182700 -0.842657
v 0.020844 -0.229360 -0.114846 0.674510 0.584314 0.039216
vn -0.748183 0.531068 0.397731
v 0.007012 -0.153706 0.069355 0.756863 0.701961 0.003922
vn -0.322331 0.938525 -0.123587
v 0.009096 -0.151798 0.065175 0.721569 0.654902 0.011765
vn -0.376652 -0.892527 0.248051
v 0.014142 -0.216288 -0.026697 0.784314 0.737255 0.094118
vn -0.978013 0.161373 -0.132094
v 0.008859 -0.188167 0.000120 0.784314 0.729412 0.082353
vn -0.073913 0.950184 0.302799
v 0.020074 -0.150776 0.070429 0.721569 0.647059 0.047059
vn 0.097254 -0.426528 -0.899231
v 0.133243 -0.244872 -0.101210 0.686275 0.600000 0.047059
vn -0.139035 0.201121 0.969649
v 0.027894 -0.166911 0.076504 0.741176 0.682353 0.094118
vn -0.082658 0.161907 0.983338
v 0.062498 -0.170865 0.080993 0.819608 0.800000 0.286275
vn 0.014169 0.960034 -0.279523
v 0.014859 -0.162648 0.026792 0.694118 0.603922 0.011765
vn -0.972127 -0.234378 -0.005973
v 0.006229 -0.200857 0.009309 0.784314 0.737255 0.109804
vn 0.094781 0.964127 -0.247944
v 0.027615 -0.173053 -0.005723 0.674510 0.576471 0.019608
vn 0.146657 0.942414 -0.300579
v 0.110081 -0.184002 -0.015781 0.674510 0.576471 0.011765
vn 0.085886 0.947665 -0.307496
v 0.059633 -0.172454 0.007884 0.674510 0.576471 0.019608
vn 0.045055 0.752725 0.656791
v 0.075745 -0.154815 0.078971 0.701961 0.619608 0.047059
vn -0.153745 -0.952574 0.262612
v 0.025134 -0.226439 -0.057351 0.713725 0.639216 0.066667
vn 0.945161 0.325036 -0.031985
v 0.139770 -0.184251 0.011809 0.701961 0.619608 0.027451
vn -0.087606 -0.992112 -0.089665
v 0.064399 -0.244606 -0.103671 0.701961 0.627451 0.058824
vn -0.886296 -0.463024 0.009438
v 0.016968 -0.235664 -0.097181 0.694118 0.611765 0.039216
vn 0.472432 -0.825645 -0.308412
v 0.139495 -0.250351 -0.097523 0.701961 0.619608 0.109804
vn 0.690224 -0.280696 -0.666933
v 0.144138 -0.226280 -0.105777 0.666667 0.576471 0.047059
vn -0.268796 0.836731 -0.477105
v 0.024138 -0.212700 -0.118730 0.709804 0.631373 0.011765
vn 0.390180 0.915189 -0.100934
v 0.130165 -0.163279 0.076826 0.674510 0.576471 0.019608
vn 0.159018 0.215787 -0.963405
v 0.114550 -0.222164 -0.110155 0.713725 0.639216 0.003922
vn 0.424343 0.868146 -0.257403
v 0.136321 -0.184361 -0.000051 0.682353 0.592157 0.019608
vn -0.122322 -0.939819 0.319026
v 0.031671 -0.213150 -0.009998 0.737255 0.666667 0.003922
vn 0.281735 0.148591 0.947917
v 0.128641 -0.171892 0.085559 0.784314 0.737255 0.203922
vn 0.517262 0.724613 0.455386
v 0.129943 -0.163550 0.082321 0.784314 0.729412 0.192157
vn 0.975655 -0.165668 0.143710
v 0.134709 -0.190512 0.047063 0.713725 0.639216 0.066667
vn 0.621184 0.576393 -0.530944
v 0.145670 -0.223253 -0.105060 0.666667 0.564706 0.019608
vn 0.944248 -0.323311 0.062181
v 0.142070 -0.244555 -0.093659 0.803922 0.776471 0.294118
vn -0.992778 0.038905 -0.113482
v 0.012882 -0.217868 -0.056716 0.694118 0.603922 0.031373
vn 0.870722 -0.453591 0.189995
v 0.136297 -0.226989 -0.023005 0.874510 0.858824 0.521569
vn 0.205118 -0.936557 0.284230
v 0.132037 -0.234231 -0.031014 0.819608 0.796078 0.321569
vn -0.050087 -0.955207 -0.291671
v 0.095703 -0.247874 -0.100946 0.709804 0.631373 0.058824
vn -0.127023 -0.073563 0.989168
v 0.089757 -0.187412 0.085471 0.886275 0.886275 0.603922
vn -0.176860 -0.637655 0.749744
v 0.066213 -0.188403 0.081141 0.858824 0.847059 0.447059
vn -0.120117 -0.943621 0.308466
v 0.065531 -0.221168 -0.018207 0.666667 0.564706 0.019608
vn -0.890509 -0.451203 0.058399
v 0.012743 -0.220793 -0.050736 0.729412 0.658824 0.039216
vn 0.941533 0.283462 0.182113
v 0.134150 -0.166843 0.076892 0.811765 0.784314 0.356863
vn -0.127262 -0.113164 0.985393
v 0.064546 -0.182945 0.082887 0.874510 0.858824 0.521569
vn 0.045677 -0.514465 -0.856294
v 0.058318 -0.241058 -0.108407 0.674510 0.584314 0.039216
vn -0.342033 -0.869003 -0.357559
v 0.021176 -0.240494 -0.110805 0.674510 0.584314 0.039216
vn 0.121527 0.934326 -0.335061
v 0.075514 -0.196551 -0.060996 0.674510 0.576471 0.019608
vn 0.976602 -0.173715 0.126778
v 0.139873 -0.201363 0.001455 0.756863 0.701961 0.094118
vn 0.292442 0.870853 -0.395086
v 0.137776 -0.199819 -0.040275 0.674510 0.576471 0.019608
vn 0.151606 0.908879 -0.388528
v 0.102326 -0.192950 -0.043366 0.674510 0.576471 0.019608
vn 0.928224 -0.326693 0.177968
v 0.132180 -0.208278 0.036740 0.866667 0.847059 0.474510
vn 0.719873 0.649267 -0.245428
v 0.141873 -0.205504 -0.047709 0.694118 0.611765 0.031373
vn 0.995600 -0.063921 0.068513
v 0.142119 -0.211766 -0.038170 0.701961 0.619608 0.039216
vn -0.131452 -0.943218 0.305057
v 0.097740 -0.225645 -0.022310 0.666667 0.576471 0.019608
vn 0.200410 0.908784 -0.365988
v 0.112604 -0.202812 -0.056962 0.674510 0.576471 0.019608
vn -0.124492 -0.955518 0.267370
v 0.086733 -0.234053 -0.054526 0.756863 0.701961 0.000000
vn 0.051176 0.017392 0.998538
v 0.121476 -0.192834 0.089768 0.811765 0.776471 0.239216
vn -0.072500 0.177605 0.981428
v 0.088131 -0.171745 0.082731 0.749020 0.694118 0.121569
vn -0.028038 0.492915 -0.869625
v 0.061765 -0.215406 -0.116132 0.713725 0.639216 0.039216
vn 0.065748 0.868281 -0.491696
v 0.071810 -0.210603 -0.111761 0.721569 0.647059 0.003922
vn -0.123962 -0.939367 0.319725
v 0.077606 -0.213860 0.004545 0.803922 0.764706 0.227451
vn -0.156756 -0.949326 0.272410
v 0.076580 -0.197409 0.055211 0.768627 0.713725 0.113725
vn 0.100038 0.681983 -0.724494
v 0.042531 -0.214417 -0.117377 0.701961 0.631373 0.054902
vn -0.948981 0.246137 -0.197107
v 0.020125 -0.211071 -0.098183 0.694118 0.611765 0.011765
vn 0.395479 -0.868398 0.299134
v 0.130343 -0.213471 0.033344 0.882353 0.858824 0.501961
vn -0.237150 -0.159181 0.958343
v 0.008892 -0.180185 0.075783 0.858824 0.839216 0.454902
vn -0.493308 0.792610 -0.358352
v 0.019861 -0.187674 -0.053743 0.694118 0.603922 0.011765
vn 0.002497 0.942651 -0.333770
v 0.053201 -0.203331 -0.080212 0.674510 0.576471 0.019608
vn -0.883640 0.399638 -0.243867
v 0.016748 -0.192210 -0.055235 0.694118 0.603922 0.011765
vn 0.993420 -0.113867 0.012267
v 0.144927 -0.227492 -0.089043 0.674510 0.584314 0.011765
vn 0.129859 0.924351 -0.358763
v 0.084336 -0.210608 -0.104173 0.674510 0.576471 0.019608
vn 0.006317 0.995980 -0.089349
v 0.055536 -0.215973 -0.113231 0.674510 0.576471 0.019608
vn -0.826446 0.160633 0.539615
v 0.003683 -0.169472 0.073202 0.858824 0.831373 0.431373
vn -0.138875 -0.792735 0.593536
v 0.036287 -0.185763 0.077584 0.866667 0.854902 0.501961
# 84 vertices, 0 vertices normals


usemtl material_0
vt 0.007813 0.818861
vt 0.181139 0.992188
vt 0.007813 0.992188
f 3/1/3 2/2/2 28/3/28
vt 0.118861 0.092187
vt 0.150000 0.061049
vt 0.181139 0.092187
f 68/4/68 49/5/49 67/6/67
vt 0.092188 0.281139
vt 0.018861 0.207812
vt 0.092188 0.207812
f 84/7/84 72/8/72 50/9/50
vt 0.911049 0.700000
vt 0.992188 0.618861
vt 0.992188 0.781139
f 28/10/28 2/11/2 7/12/7
vt 0.657813 0.068861
vt 0.681139 0.092187
vt 0.657813 0.092187
f 78/13/78 69/14/69 82/15/82
vt 0.181139 0.207812
vt 0.107813 0.281139
vt 0.107813 0.207812
f 26/16/26 59/17/59 60/18/60
vt 0.161049 0.050000
vt 0.192188 0.018861
vt 0.192188 0.081139
f 16/19/16 11/20/11 15/21/15
vt 0.018861 0.807813
vt 0.192188 0.807813
vt 0.192188 0.981139
f 7/22/7 2/23/2 25/24/25
vt 0.818861 0.607813
vt 0.981139 0.607813
vt 0.900000 0.688951
f 27/25/27 10/26/10 25/27/25
vt 0.207813 0.992188
vt 0.207813 0.818861
vt 0.381139 0.992188
f 65/28/65 43/29/43 81/30/81
vt 0.192188 0.118861
vt 0.192188 0.181139
vt 0.161049 0.150000
f 25/31/25 10/32/10 4/33/4
vt 0.007813 0.581139
vt 0.007813 0.418861
vt 0.088951 0.500000
f 18/34/18 74/35/74 45/36/45
vt 0.118861 0.107812
vt 0.181139 0.107812
vt 0.150000 0.138951
f 21/37/21 15/38/15 83/39/83
vt 0.281139 0.307812
vt 0.207813 0.381139
vt 0.207813 0.307812
f 17/40/17 51/41/51 39/42/39
vt 0.092188 0.081139
vt 0.061049 0.050000
vt 0.092188 0.018861
f 78/43/78 70/44/70 69/45/69
vt 0.207813 0.292187
vt 0.207813 0.218861
vt 0.281139 0.292187
f 10/46/10 78/47/78 4/48/4
vt 0.807813 0.181139
vt 0.807813 0.157812
vt 0.831139 0.157812
f 13/49/13 76/50/76 83/51/83
vt 0.642188 0.068861
vt 0.642188 0.092187
vt 0.618861 0.092187
f 84/52/84 76/53/76 13/54/13
vt 0.307813 0.392187
vt 0.307813 0.318861
vt 0.381139 0.392187
f 62/55/62 6/56/6 65/57/65
vt 0.018861 0.592188
vt 0.100000 0.511049
vt 0.181139 0.592188
f 66/58/66 48/59/48 8/60/8
vt 0.392188 0.807813
vt 0.392188 0.981139
vt 0.218861 0.807813
f 19/61/19 7/62/7 25/63/25
vt 0.218861 0.392187
vt 0.292188 0.318861
vt 0.292188 0.392187
f 21/64/21 22/65/22 7/66/7
vt 0.081139 0.007813
vt 0.050000 0.038951
vt 0.018861 0.007813
f 7/67/7 22/68/22 28/69/28
vt 0.111049 0.500000
vt 0.192188 0.418861
vt 0.192188 0.581139
f 27/70/27 2/71/2 26/72/26
vt 0.392188 0.218861
vt 0.392188 0.292187
vt 0.318861 0.292187
f 41/73/41 3/74/3 28/75/28
vt 0.392188 0.307812
vt 0.392188 0.381139
vt 0.318861 0.307812
f 60/76/60 65/77/65 57/78/57
vt 0.181139 0.007813
vt 0.150000 0.038951
vt 0.118861 0.007813
f 19/79/19 21/80/21 7/81/7
vt 0.707813 0.157812
vt 0.731139 0.157812
vt 0.707813 0.181139
f 52/82/52 32/83/32 17/84/17
vt 0.292188 0.207812
vt 0.292188 0.281139
vt 0.218861 0.207812
f 29/85/29 17/86/17 32/87/32
vt 0.707813 0.118861
vt 0.731139 0.142187
vt 0.707813 0.142187
f 25/88/25 12/89/12 11/90/11
vt 0.781139 0.192187
vt 0.757813 0.192187
vt 0.757813 0.168861
f 25/91/25 4/92/4 12/93/12
vt 0.742188 0.192187
vt 0.718861 0.192187
vt 0.742188 0.168861
f 12/94/12 79/95/79 11/96/11
vt 0.407813 0.818861
vt 0.581139 0.992188
vt 0.407813 0.992188
f 72/97/72 75/98/75 1/99/1
vt 0.307813 0.281139
vt 0.307813 0.207812
vt 0.381139 0.207812
f 33/100/33 8/101/8 48/102/48
vt 0.138951 0.050000
vt 0.107813 0.081139
vt 0.107813 0.018861
f 35/103/35 14/104/14 74/105/74
vt 0.818861 0.092187
vt 0.842188 0.068861
vt 0.842188 0.092187
f 15/106/15 19/107/19 16/108/16
vt 0.281139 0.107812
vt 0.250000 0.138951
vt 0.218861 0.107812
f 23/109/23 16/110/16 19/111/19
vt 0.481139 0.307812
vt 0.407813 0.381139
vt 0.407813 0.307812
f 19/112/19 25/113/25 23/114/23
vt 0.657813 0.168861
vt 0.681139 0.192187
vt 0.657813 0.192187
f 15/115/15 21/116/21 19/117/19
vt 0.618861 0.192187
vt 0.642188 0.168861
vt 0.642188 0.192187
f 38/118/38 62/119/62 59/120/59
vt 0.100000 0.488951
vt 0.018861 0.407813
vt 0.181139 0.407813
f 58/121/58 61/122/61 46/123/46
vt 0.238951 0.150000
vt 0.207813 0.181139
vt 0.207813 0.118861
f 75/124/75 46/125/46 61/126/61
vt 0.481139 0.292187
vt 0.407813 0.292187
vt 0.407813 0.218861
f 68/127/68 67/128/67 40/129/40
vt 0.692188 0.118861
vt 0.692188 0.142187
vt 0.668861 0.142187
f 6/130/6 62/131/62 63/132/63
vt 0.238951 0.050000
vt 0.207813 0.081139
vt 0.207813 0.018861
f 12/133/12 4/134/4 77/135/77
vt 0.207813 0.581139
vt 0.207813 0.418861
vt 0.288951 0.500000
f 14/136/14 69/137/69 55/138/55
vt 0.281139 0.092187
vt 0.218861 0.092187
vt 0.250000 0.061049
f 14/139/14 55/140/55 56/141/56
vt 0.507813 0.318861
vt 0.581139 0.392187
vt 0.507813 0.392187
f 63/142/63 58/143/58 46/144/46
vt 0.492188 0.392187
vt 0.418861 0.392187
vt 0.492188 0.318861
f 11/145/11 79/146/79 18/147/18
vt 0.592188 0.292187
vt 0.518861 0.292187
vt 0.592188 0.218861
f 27/148/27 25/149/25 2/150/2
vt 0.592188 0.381139
vt 0.518861 0.307812
vt 0.592188 0.307812
f 30/151/30 53/152/53 42/153/42
vt 0.300000 0.511049
vt 0.381139 0.592188
vt 0.218861 0.592188
f 26/154/26 38/155/38 59/156/59
vt 0.307813 0.181139
vt 0.307813 0.118861
vt 0.338951 0.150000
f 28/157/28 40/158/40 41/159/41
vt 0.492188 0.281139
vt 0.418861 0.207812
vt 0.492188 0.207812
f 60/160/60 59/161/59 65/162/65
vt 0.581139 0.207812
vt 0.507813 0.281139
vt 0.507813 0.207812
f 62/163/62 30/164/30 63/165/63
vt 0.857813 0.192187
vt 0.857813 0.168861
vt 0.881139 0.192187
f 36/166/36 3/167/3 41/168/41
vt 0.592188 0.981139
vt 0.418861 0.807813
vt 0.592188 0.807813
f 3/169/3 26/170/26 2/171/2
vt 0.681139 0.307812
vt 0.607813 0.381139
vt 0.607813 0.307812
f 63/172/63 44/173/44 80/174/80
vt 0.692188 0.157812
vt 0.692188 0.181139
vt 0.668861 0.157812
f 44/175/44 5/176/5 33/177/33
vt 0.381139 0.192187
vt 0.318861 0.192187
vt 0.350000 0.161049
f 38/178/38 36/179/36 30/180/30
vt 0.607813 0.292187
vt 0.607813 0.218861
vt 0.681139 0.292187
f 57/181/57 81/182/81 10/183/10
vt 0.757813 0.092187
vt 0.757813 0.068861
vt 0.781139 0.092187
f 3/184/3 36/185/36 38/186/38
vt 0.781139 0.992188
vt 0.607813 0.992188
vt 0.607813 0.818861
f 3/187/3 38/188/38 26/189/26
vt 0.707813 0.392187
vt 0.707813 0.318861
vt 0.781139 0.392187
f 30/190/30 42/191/42 58/192/58
vt 0.250000 0.161049
vt 0.281139 0.192187
vt 0.218861 0.192187
f 28/193/28 22/194/22 68/195/68
vt 0.261049 0.150000
vt 0.292188 0.118861
vt 0.292188 0.181139
f 68/196/68 22/197/22 49/198/49
vt 0.692188 0.318861
vt 0.692188 0.392187
vt 0.618861 0.392187
f 39/199/39 51/200/51 71/201/71
vt 0.792188 0.218861
vt 0.792188 0.292187
vt 0.718861 0.292187
f 28/202/28 68/203/68 40/204/40
vt 0.942188 0.168861
vt 0.942188 0.192187
vt 0.918861 0.192187
f 53/205/53 36/206/36 41/207/41
vt 0.742188 0.092187
vt 0.718861 0.092187
vt 0.742188 0.068861
f 53/208/53 41/209/41 9/210/9
vt 0.931139 0.157812
vt 0.907813 0.181139
vt 0.907813 0.157812
f 9/211/9 41/212/41 40/213/40
vt 0.350000 0.061049
vt 0.381139 0.092187
vt 0.318861 0.092187
f 53/214/53 30/215/30 36/216/36
vt 0.392188 0.581139
vt 0.311049 0.500000
vt 0.392188 0.418861
f 81/217/81 78/218/78 10/219/10
vt 0.792188 0.381139
vt 0.718861 0.307812
vt 0.792188 0.307812
f 11/220/11 23/221/23 25/222/25
vt 0.361049 0.050000
vt 0.392188 0.018861
vt 0.392188 0.081139
f 23/223/23 11/224/11 16/225/16
vt 0.792188 0.042188
vt 0.768861 0.042188
vt 0.792188 0.018861
f 77/226/77 79/227/79 12/228/12
vt 0.300000 0.488951
vt 0.218861 0.407813
vt 0.381139 0.407813
f 63/229/63 46/230/46 44/231/44
vt 0.361049 0.150000
vt 0.392188 0.118861
vt 0.392188 0.181139
f 35/232/35 73/233/73 14/234/14
vt 0.350000 0.138951
vt 0.318861 0.107812
vt 0.381139 0.107812
f 73/235/73 69/236/69 14/237/14
vt 0.618861 0.207812
vt 0.692188 0.207812
vt 0.692188 0.281139
f 30/238/30 58/239/58 63/240/63
vt 0.261049 0.050000
vt 0.292188 0.018861
vt 0.292188 0.081139
f 38/241/38 30/242/30 62/243/62
vt 0.488951 0.500000
vt 0.407813 0.581139
vt 0.407813 0.418861
f 17/244/17 29/245/29 51/246/51
vt 0.907813 0.118861
vt 0.931139 0.142187
vt 0.907813 0.142187
f 35/247/35 82/248/82 73/249/73
vt 0.500000 0.511049
vt 0.581139 0.592188
vt 0.418861 0.592188
f 26/250/26 60/251/60 27/252/27
vt 0.618861 0.807813
vt 0.792188 0.807813
vt 0.792188 0.981139
f 27/253/27 60/254/60 57/255/57
vt 0.807813 0.818861
vt 0.981139 0.992188
vt 0.807813 0.992188
f 31/256/31 29/257/29 56/258/56
vt 0.768861 0.057813
vt 0.792188 0.057813
vt 0.792188 0.081139
f 56/259/56 55/260/55 31/261/31
vt 0.792188 0.118861
vt 0.792188 0.142187
vt 0.768861 0.142187
f 74/262/74 79/263/79 77/264/77
vt 0.250000 0.038951
vt 0.218861 0.007813
vt 0.281139 0.007813
f 59/265/59 62/266/62 65/267/65
vt 0.707813 0.281139
vt 0.707813 0.207812
vt 0.781139 0.207812
f 61/268/61 42/269/42 9/270/9
vt 0.511049 0.500000
vt 0.592188 0.418861
vt 0.592188 0.581139
f 57/271/57 65/272/65 81/273/81
vt 0.350000 0.038951
vt 0.318861 0.007813
vt 0.381139 0.007813
f 70/274/70 37/275/37 69/276/69
vt 0.807813 0.307812
vt 0.881139 0.307812
vt 0.807813 0.381139
f 53/277/53 9/278/9 42/279/42
vt 0.581139 0.407813
vt 0.500000 0.488951
vt 0.418861 0.407813
f 78/280/78 82/281/82 35/282/35
vt 0.607813 0.581139
vt 0.607813 0.418861
vt 0.688951 0.500000
f 27/283/27 57/284/57 10/285/10
vt 0.807813 0.218861
vt 0.881139 0.292187
vt 0.807813 0.292187
f 4/286/4 35/287/35 77/288/77
vt 0.818861 0.807813
vt 0.992188 0.807813
vt 0.992188 0.981139
f 4/289/4 78/290/78 35/291/35
vt 0.907813 0.318861
vt 0.981139 0.392187
vt 0.907813 0.392187
f 58/292/58 42/293/42 61/294/61
vt 0.338951 0.050000
vt 0.307813 0.081139
vt 0.307813 0.018861
f 6/295/6 63/296/63 80/297/80
vt 0.818861 0.392187
vt 0.892188 0.318861
vt 0.892188 0.392187
f 78/298/78 81/299/81 70/300/70
vt 0.992188 0.218861
vt 0.992188 0.292187
vt 0.918861 0.292187
f 65/301/65 6/302/6 43/303/43
vt 0.768861 0.157812
vt 0.792188 0.157812
vt 0.792188 0.181139
f 76/304/76 84/305/84 54/306/54
vt 0.418861 0.107812
vt 0.481139 0.107812
vt 0.450000 0.138951
f 21/307/21 54/308/54 22/309/22
vt 0.992188 0.381139
vt 0.918861 0.307812
vt 0.992188 0.307812
f 76/310/76 54/311/54 21/312/21
vt 0.007813 0.792188
vt 0.007813 0.618861
vt 0.181139 0.792188
f 64/313/64 47/314/47 75/315/75
vt 0.018861 0.607813
vt 0.192188 0.607813
vt 0.192188 0.781139
f 71/316/71 72/317/72 84/318/84
vt 0.718861 0.107812
vt 0.742188 0.107812
vt 0.742188 0.131139
f 54/319/54 50/320/50 49/321/49
vt 0.407813 0.118861
vt 0.438951 0.150000
vt 0.407813 0.181139
f 6/322/6 80/323/80 43/324/43
vt 0.957813 0.192187
vt 0.957813 0.168861
vt 0.981139 0.192187
f 43/325/43 80/326/80 34/327/34
vt 0.781139 0.592188
vt 0.618861 0.592188
vt 0.700000 0.511049
f 15/328/15 18/329/18 83/330/83
vt 0.892188 0.207812
vt 0.892188 0.281139
vt 0.818861 0.207812
f 51/331/51 64/332/64 71/333/71
vt 0.407813 0.081139
vt 0.407813 0.018861
vt 0.438951 0.050000
f 75/334/75 47/335/47 46/336/46
vt 0.757813 0.131139
vt 0.757813 0.107812
vt 0.781139 0.107812
f 46/337/46 47/338/47 5/339/5
vt 0.450000 0.061049
vt 0.481139 0.092187
vt 0.418861 0.092187
f 5/340/5 44/341/44 46/342/46
vt 0.711049 0.500000
vt 0.792188 0.418861
vt 0.792188 0.581139
f 64/343/64 51/344/51 66/345/66
vt 0.781139 0.407813
vt 0.700000 0.488951
vt 0.618861 0.407813
f 47/346/47 64/347/64 66/348/66
vt 0.831139 0.142187
vt 0.807813 0.142187
vt 0.807813 0.118861
f 43/349/43 34/350/34 37/351/37
vt 0.907813 0.281139
vt 0.907813 0.207812
vt 0.981139 0.207812
f 37/352/37 34/353/34 20/354/20
vt 0.207813 0.618861
vt 0.381139 0.792188
vt 0.207813 0.792188
f 29/355/29 66/356/66 51/357/51
vt 0.392188 0.607813
vt 0.392188 0.781139
vt 0.218861 0.607813
f 47/358/47 66/359/66 8/360/8
vt 0.507813 0.118861
vt 0.538951 0.150000
vt 0.507813 0.181139
f 70/361/70 81/362/81 37/363/37
vt 0.807813 0.057812
vt 0.831139 0.057812
vt 0.807813 0.081139
f 82/364/82 69/365/69 73/366/73
vt 0.518861 0.192187
vt 0.550000 0.161049
vt 0.581139 0.192187
f 43/367/43 37/368/37 81/369/81
vt 0.481139 0.192187
vt 0.418861 0.192187
vt 0.450000 0.161049
f 77/370/77 35/371/35 74/372/74
vt 0.007813 0.107812
vt 0.081139 0.107812
vt 0.007813 0.181139
f 74/373/74 32/374/32 45/375/45
vt 0.692188 0.042188
vt 0.668861 0.042188
vt 0.692188 0.018861
f 45/376/45 32/377/32 52/378/52
vt 0.888951 0.500000
vt 0.807813 0.581139
vt 0.807813 0.418861
f 69/379/69 37/380/37 55/381/55
vt 0.492188 0.118861
vt 0.492188 0.181139
vt 0.461049 0.150000
f 55/382/55 20/383/20 48/384/48
vt 0.818861 0.592188
vt 0.900000 0.511049
vt 0.981139 0.592188
f 55/385/55 37/386/37 20/387/20
vt 0.518861 0.092187
vt 0.550000 0.061049
vt 0.581139 0.092187
f 45/388/45 52/389/52 24/390/24
vt 0.007813 0.018861
vt 0.081139 0.092187
vt 0.007813 0.092187
f 45/391/45 24/392/24 18/393/18
vt 0.581139 0.792188
vt 0.407813 0.792188
vt 0.407813 0.618861
f 75/394/75 71/395/71 64/396/64
vt 0.692188 0.081139
vt 0.668861 0.057813
vt 0.692188 0.057813
f 32/397/32 14/398/14 56/399/56
vt 0.592188 0.081139
vt 0.561049 0.050000
vt 0.592188 0.018861
f 74/400/74 14/401/14 32/402/32
vt 0.592188 0.181139
vt 0.561049 0.150000
vt 0.592188 0.118861
f 29/403/29 32/404/32 56/405/56
vt 0.107813 0.192187
vt 0.107813 0.118861
vt 0.181139 0.192187
f 79/406/79 74/407/74 18/408/18
vt 0.550000 0.138951
vt 0.518861 0.107812
vt 0.581139 0.107812
f 17/409/17 24/410/24 52/411/52
vt 0.992188 0.418861
vt 0.992188 0.581139
vt 0.911049 0.500000
f 15/412/15 11/413/11 18/414/18
vt 0.492188 0.081139
vt 0.461049 0.050000
vt 0.492188 0.018861
f 13/415/13 24/416/24 17/417/17
vt 0.481139 0.007813
vt 0.450000 0.038951
vt 0.418861 0.007813
f 83/418/83 76/419/76 21/420/21
vt 0.818861 0.407813
vt 0.981139 0.407813
vt 0.900000 0.488951
f 13/421/13 17/422/17 39/423/39
vt 0.092188 0.192187
vt 0.018861 0.192187
vt 0.092188 0.118861
f 13/424/13 83/425/83 24/426/24
vt 0.007813 0.381139
vt 0.007813 0.218861
vt 0.088951 0.300000
f 83/427/83 18/428/18 24/429/24
vt 0.592188 0.781139
vt 0.418861 0.607813
vt 0.592188 0.607813
f 84/430/84 39/431/39 71/432/71
vt 0.781139 0.792188
vt 0.607813 0.792188
vt 0.607813 0.618861
f 31/433/31 66/434/66 29/435/29
vt 0.642188 0.031139
vt 0.618861 0.007813
vt 0.642188 0.007813
f 55/436/55 48/437/48 31/438/31
vt 0.100000 0.311049
vt 0.181139 0.392187
vt 0.018861 0.392187
f 48/439/48 66/440/66 31/441/31
vt 0.831139 0.042187
vt 0.807813 0.042187
vt 0.807813 0.018861
f 1/442/1 9/443/9 40/444/40
vt 0.657813 0.007813
vt 0.681139 0.007813
vt 0.657813 0.031139
f 61/445/61 9/446/9 75/447/75
vt 0.742188 0.007813
vt 0.742188 0.031139
vt 0.718861 0.007813
f 5/448/5 47/449/47 8/450/8
vt 0.581139 0.007813
vt 0.550000 0.038951
vt 0.518861 0.007813
f 48/451/48 20/452/20 33/453/33
vt 0.757813 0.007813
vt 0.781139 0.007813
vt 0.757813 0.031139
f 54/454/54 84/455/84 50/456/50
vt 0.707813 0.081139
vt 0.707813 0.057813
vt 0.731139 0.057813
f 5/457/5 8/458/8 33/459/33
vt 0.538951 0.050000
vt 0.507813 0.081139
vt 0.507813 0.018861
f 80/460/80 44/461/44 34/462/34
vt 0.707813 0.042188
vt 0.707813 0.018861
vt 0.731139 0.042188
f 44/463/44 33/464/33 34/465/34
vt 0.842188 0.107812
vt 0.842188 0.131139
vt 0.818861 0.107812
f 20/466/20 34/467/34 33/468/33
vt 0.618861 0.607813
vt 0.792188 0.607813
vt 0.792188 0.781139
f 72/469/72 71/470/71 75/471/75
vt 0.807813 0.792188
vt 0.807813 0.618861
vt 0.981139 0.792188
f 13/472/13 39/473/39 84/474/84
vt 0.681139 0.107812
vt 0.650000 0.138951
vt 0.618861 0.107812
f 22/475/22 54/476/54 49/477/49
vt 0.111049 0.300000
vt 0.192188 0.218861
vt 0.192188 0.381139
f 72/478/72 1/479/1 50/480/50
vt 0.881139 0.107812
vt 0.857813 0.131139
vt 0.857813 0.107812
f 49/481/49 1/482/1 67/483/67
vt 0.881139 0.092187
vt 0.857813 0.092187
vt 0.857813 0.068861
f 40/484/40 67/485/67 1/486/1
vt 0.638951 0.150000
vt 0.607813 0.181139
vt 0.607813 0.118861
f 1/487/1 75/488/75 9/489/9
vt 0.638951 0.050000
vt 0.607813 0.081139
vt 0.607813 0.018861
f 49/490/49 50/491/50 1/492/1
# 164 faces, 492 coords texture

# End of File
