####
#
# OBJ File Generated by Meshlab
#
####
# Object food-can1_convex.obj
#
# Vertices: 27
# Faces: 50
#
####
vn 0.041609 0.960914 -0.273701
v 0.774458 -0.706608 0.086238
vn -0.101125 0.902664 0.418296
v 0.790944 -0.692609 -0.474263
vn -0.625221 -0.110985 0.772516
v 0.990088 -0.415663 -0.463891
vn 0.359004 0.779058 -0.513990
v 0.664793 -0.680210 0.089563
vn -0.221866 0.595301 -0.772265
v 0.849828 -0.690882 0.092805
vn -0.873203 -0.372494 -0.314268
v 0.986205 -0.388718 0.084695
vn 0.967840 0.185864 0.169531
v 0.543413 -0.506231 -0.456776
vn 0.683472 0.404852 -0.607422
v 0.575162 -0.598666 0.090773
vn 0.782735 0.351693 0.513457
v 0.568312 -0.574269 -0.473264
vn 0.846607 -0.068925 -0.527736
v 0.536276 -0.445348 0.088176
vn 0.735433 -0.152995 0.660099
v 0.544205 -0.424390 -0.473397
vn 0.125984 -0.883931 0.450326
v 0.729453 -0.240815 -0.464483
vn 0.232052 0.957245 0.172725
v 0.717518 -0.687266 -0.458132
vn -0.704757 -0.629448 0.327282
v 0.927740 -0.302984 -0.461940
vn -0.227045 -0.767306 0.599743
v 0.825722 -0.245541 -0.462771
vn -0.251222 -0.899099 -0.358481
v 0.831548 -0.246000 0.076435
vn -0.882767 0.238119 0.404996
v 0.987573 -0.531239 -0.459154
vn -0.865759 0.214984 -0.451932
v 0.995827 -0.528039 0.089125
vn -0.389863 0.377295 -0.840033
v 0.921115 -0.648083 0.092072
vn -0.523848 0.482204 0.702184
v 0.933980 -0.621360 -0.470706
vn 0.341499 0.516563 0.785201
v 0.636981 -0.652793 -0.477604
vn -0.323653 -0.474850 -0.818392
v 0.914399 -0.288351 0.085366
vn 0.320737 -0.496323 0.806716
v 0.648138 -0.271329 -0.467463
vn 0.111402 -0.907289 -0.405483
v 0.730213 -0.237967 0.084371
vn 0.209304 -0.293106 -0.932888
v 0.628893 -0.283193 0.086176
vn 0.821260 -0.527173 -0.218223
v 0.575553 -0.335119 0.081129
vn 0.771041 -0.515160 0.374308
v 0.574218 -0.346528 -0.463047
# 27 vertices, 0 vertices normals

f 23//23 27//27 11//11
f 13//13 1//1 2//2
f 11//11 21//21 23//23
f 23//23 21//21 20//20
f 23//23 20//20 3//3
f 15//15 3//3 14//14
f 15//15 23//23 3//3
f 25//25 10//10 26//26
f 12//12 24//24 23//23
f 13//13 4//4 1//1
f 2//2 20//20 21//21
f 6//6 3//3 18//18
f 14//14 3//3 6//6
f 14//14 6//6 22//22
f 15//15 22//22 16//16
f 9//9 11//11 7//7
f 10//10 7//7 11//11
f 8//8 7//7 10//10
f 23//23 15//15 12//12
f 23//23 24//24 25//25
f 5//5 19//19 20//20
f 21//21 4//4 13//13
f 4//4 5//5 1//1
f 1//1 5//5 2//2
f 15//15 16//16 24//24
f 15//15 24//24 12//12
f 3//3 20//20 17//17
f 9//9 21//21 11//11
f 9//9 8//8 21//21
f 7//7 8//8 9//9
f 10//10 11//11 26//26
f 26//26 11//11 27//27
f 8//8 5//5 4//4
f 25//25 8//8 10//10
f 8//8 25//25 5//5
f 24//24 16//16 22//22
f 22//22 6//6 18//18
f 13//13 2//2 21//21
f 2//2 5//5 20//20
f 17//17 18//18 3//3
f 26//26 27//27 23//23
f 18//18 19//19 22//22
f 19//19 18//18 20//20
f 18//18 17//17 20//20
f 4//4 21//21 8//8
f 14//14 22//22 15//15
f 26//26 23//23 25//25
f 25//25 22//22 19//19
f 25//25 19//19 5//5
f 25//25 24//24 22//22
# 50 faces, 0 coords texture

# End of File
