####
#
# OBJ File Generated by Meshlab
#
####
# Object part-leaf_low.obj
#
# Vertices: 12
# Faces: 20
#
####
mtllib ./part-leaf_low.obj.mtl

vn -0.569154 0.810530 -0.138220
v -0.989193 0.038517 -0.192863 0.474510 0.647059 0.231373
vn -0.650514 -0.488017 -0.581955
v -0.972446 -0.138634 -0.396241 0.474510 0.647059 0.231373
vn 0.867683 0.496602 0.022667
v 1.056049 0.155696 0.290548 0.474510 0.647059 0.231373
vn 0.256044 0.595609 -0.761375
v 0.448541 -0.063900 -0.433364 0.474510 0.647059 0.231373
vn -0.510653 -0.569972 0.643712
v -0.753178 0.051097 0.215970 0.474510 0.647059 0.231373
vn 0.183320 -0.702500 0.687668
v 0.713154 -0.083135 0.371665 0.474510 0.647059 0.231373
vn 0.160207 0.879617 0.447892
v 0.379078 0.222090 0.269338 0.474510 0.647059 0.231373
vn -0.043196 0.631204 -0.774413
v -0.330600 -0.054464 -0.437636 0.474510 0.647059 0.231373
vn 0.059973 -0.850165 -0.523089
v 0.118885 -0.271235 -0.467125 0.474510 0.647059 0.231373
vn 0.610125 -0.680563 -0.405686
v 0.708301 -0.174418 -0.227136 0.474510 0.647059 0.231373
vn -0.159468 0.974688 0.156695
v -0.264169 0.284210 0.421904 0.474510 0.647059 0.231373
vn -0.033432 0.198766 0.979477
v -0.156823 0.112572 0.537086 0.474510 0.647059 0.231373
# 12 vertices, 0 vertices normals


usemtl material_0
vt 0.147806 0.507813
vt 0.007813 0.647806
vt 0.007813 0.507813
f 3/1/3 7/2/7 6/3/6
vt 0.147806 0.492187
vt 0.007813 0.492187
vt 0.007813 0.352194
f 4/4/4 9/5/9 8/6/8
vt 0.174479 0.658854
vt 0.174479 0.518861
vt 0.314472 0.658854
f 10/7/10 4/8/4 3/9/3
vt 0.158854 0.518861
vt 0.158854 0.658854
vt 0.018861 0.658854
f 3/10/3 6/11/6 10/12/10
vt 0.674479 0.981139
vt 0.674479 0.685528
vt 0.822285 0.833333
f 3/13/3 4/14/4 7/15/7
vt 0.416667 0.572285
vt 0.352194 0.507813
vt 0.481139 0.507813
f 12/16/12 7/17/7 11/18/11
vt 0.405618 0.583333
vt 0.341146 0.647806
vt 0.341146 0.518861
f 11/19/11 5/20/5 12/21/12
vt 0.325521 0.492187
vt 0.185528 0.492187
vt 0.325521 0.352194
f 7/22/7 12/23/12 6/24/6
vt 0.685528 0.992188
vt 0.833333 0.844382
vt 0.981139 0.992188
f 11/25/11 7/26/7 4/27/4
vt 0.844382 0.833333
vt 0.992188 0.685528
vt 0.992188 0.981139
f 10/28/10 6/29/6 9/30/9
vt 0.341146 0.481139
vt 0.341146 0.352194
vt 0.405618 0.416667
f 10/31/10 9/32/9 4/33/4
vt 0.314472 0.992188
vt 0.007813 0.992188
vt 0.007813 0.685528
f 4/34/4 8/35/8 11/36/11
vt 0.981139 0.674479
vt 0.833333 0.822285
vt 0.685528 0.674479
f 6/37/6 12/38/12 5/39/5
vt 0.325521 0.981139
vt 0.018861 0.674479
vt 0.325521 0.674479
f 9/40/9 5/41/5 2/42/2
vt 0.341146 0.992188
vt 0.341146 0.685528
vt 0.647806 0.992188
f 9/43/9 6/44/6 5/45/5
vt 0.352194 0.492187
vt 0.416667 0.427715
vt 0.481139 0.492187
f 5/46/5 1/47/1 2/48/2
vt 0.325521 0.647806
vt 0.185528 0.507813
vt 0.325521 0.507813
f 9/49/9 2/50/2 8/51/8
vt 0.018861 0.341146
vt 0.158854 0.341146
vt 0.158854 0.481139
f 8/52/8 2/53/2 1/54/1
vt 0.658854 0.674479
vt 0.658854 0.981139
vt 0.352194 0.674479
f 8/55/8 1/56/1 11/57/11
vt 0.174479 0.341146
vt 0.314472 0.341146
vt 0.174479 0.481139
f 5/58/5 11/59/11 1/60/1
# 20 faces, 60 coords texture

# End of File
