####
#
# OBJ File Generated by Meshlab
#
####
# Object part-hooray_low.obj
#
# Vertices: 12
# Faces: 20
#
####
mtllib ./part-hooray_low.obj.mtl

vn 0.273317 0.745887 -0.607413
v 0.322067 0.298525 -0.057629 1.000000 1.000000 1.000000
vn -0.317467 -0.939239 -0.130560
v 0.085791 -0.920508 -0.449318 1.000000 1.000000 1.000000
vn -0.022278 0.935756 0.351945
v 0.000274 0.954991 0.407883 1.000000 1.000000 1.000000
vn -0.999904 -0.013149 0.004454
v -1.042950 0.067620 0.058928 1.000000 1.000000 1.000000
vn 0.452862 0.268929 0.850055
v 0.312833 0.225657 0.229002 1.000000 1.000000 1.000000
vn -0.315959 -0.045485 0.947682
v -0.219967 0.146940 0.259048 1.000000 1.000000 1.000000
vn -0.378269 0.672338 -0.636297
v -0.188815 0.358696 0.023282 1.000000 1.000000 1.000000
vn 0.678738 -0.684277 0.266609
v 1.009468 0.013466 0.064259 1.000000 1.000000 1.000000
vn 0.516146 0.758086 -0.398622
v 0.956056 0.129303 -0.184345 1.000000 1.000000 1.000000
vn -0.478833 -0.011225 -0.877834
v -0.273153 -0.113295 -0.205880 1.000000 1.000000 1.000000
vn 0.293801 -0.083471 -0.952215
v 0.206461 -0.195109 -0.299646 1.000000 1.000000 1.000000
vn 0.004227 -0.813433 0.581644
v -0.039191 -0.390993 -0.029915 1.000000 1.000000 1.000000
# 12 vertices, 0 vertices normals


usemtl material_0
vt 0.007813 0.685528
vt 0.314472 0.992188
vt 0.007813 0.992188
f 12/1/12 8/2/8 5/3/5
vt 0.007813 0.018861
vt 0.155618 0.166667
vt 0.007813 0.314472
f 3/4/3 5/5/5 1/6/1
vt 0.018861 0.325521
vt 0.166667 0.177715
vt 0.314472 0.325521
f 11/7/11 10/8/10 7/9/7
vt 0.325521 0.981139
vt 0.018861 0.674479
vt 0.325521 0.674479
f 3/10/3 6/11/6 5/12/5
vt 0.341146 0.992188
vt 0.341146 0.685528
vt 0.647806 0.992188
f 7/13/7 3/14/3 1/15/1
vt 0.325521 0.018861
vt 0.325521 0.314472
vt 0.177715 0.166667
f 7/16/7 4/17/4 6/18/6
vt 0.352194 0.674479
vt 0.658854 0.674479
vt 0.658854 0.981139
f 5/19/5 6/20/6 12/21/12
vt 0.981139 0.992188
vt 0.674479 0.992188
vt 0.674479 0.685528
f 7/22/7 1/23/1 11/24/11
vt 0.685528 0.674479
vt 0.992188 0.674479
vt 0.992188 0.981139
f 12/25/12 6/26/6 4/27/4
vt 0.007813 0.352194
vt 0.314472 0.658854
vt 0.007813 0.658854
f 9/28/9 11/29/11 1/30/1
vt 0.166667 0.155618
vt 0.018861 0.007812
vt 0.314472 0.007812
f 7/31/7 6/32/6 3/33/3
vt 0.325521 0.647806
vt 0.018861 0.341146
vt 0.325521 0.341146
f 4/34/4 7/35/7 10/36/10
vt 0.341146 0.658854
vt 0.341146 0.352194
vt 0.647806 0.658854
f 10/37/10 12/38/12 4/39/4
vt 0.488951 0.166667
vt 0.341146 0.314472
vt 0.341146 0.018861
f 1/40/1 5/41/5 9/42/9
vt 0.352194 0.325521
vt 0.500000 0.177715
vt 0.647806 0.325521
f 5/43/5 8/44/8 9/45/9
vt 0.511049 0.166667
vt 0.658854 0.018861
vt 0.658854 0.314472
f 9/46/9 8/47/8 11/48/11
vt 0.658854 0.341146
vt 0.658854 0.647806
vt 0.352194 0.341146
f 11/49/11 8/50/8 12/51/12
vt 0.674479 0.352194
vt 0.981139 0.658854
vt 0.674479 0.658854
f 2/52/2 10/53/10 11/54/11
vt 0.352194 0.007812
vt 0.647806 0.007812
vt 0.500000 0.155618
f 10/55/10 2/56/2 12/57/12
vt 0.992188 0.341146
vt 0.992188 0.647806
vt 0.685528 0.341146
f 12/58/12 2/59/2 11/60/11
# 20 faces, 60 coords texture

# End of File
