####
#
# OBJ File Generated by Meshlab
#
####
# Object safe-buttlite_low.obj
#
# Vertices: 77
# Faces: 150
#
####
mtllib ./safe-buttlite_low.obj.mtl

vn -0.742797 0.665605 0.072274
v 0.764046 -0.739163 0.486026 1.000000 1.000000 1.000000
vn -0.808658 0.533446 -0.248006
v 0.759324 -0.745259 0.468088 1.000000 1.000000 1.000000
vn 0.178093 0.828972 -0.530178
v 0.826961 -0.732173 0.494988 1.000000 1.000000 1.000000
vn -0.844149 0.226797 -0.485773
v 0.759217 -0.756822 0.455130 1.000000 1.000000 1.000000
vn -0.292748 -0.898090 0.328227
v 0.781072 -0.875346 0.500535 1.000000 1.000000 1.000000
vn -0.297177 -0.884237 -0.360293
v 0.791691 -0.882304 0.482747 1.000000 1.000000 1.000000
vn -0.305909 -0.621443 -0.721269
v 0.790859 -0.868199 0.471812 1.000000 1.000000 1.000000
vn 0.733309 0.678239 0.047437
v 0.869148 -0.740930 0.495764 1.000000 1.000000 1.000000
vn -0.487561 -0.662870 -0.568232
v 0.768139 -0.867697 0.483638 1.000000 1.000000 1.000000
vn -0.518144 -0.434495 -0.736709
v 0.778844 -0.846634 0.464224 1.000000 1.000000 1.000000
vn -0.760301 -0.615295 -0.208216
v 0.752843 -0.865147 0.498301 1.000000 1.000000 1.000000
vn -0.399751 0.744976 0.534051
v 0.791307 -0.734074 0.518550 1.000000 1.000000 1.000000
vn -0.822136 -0.103737 -0.559760
v 0.763822 -0.782043 0.447565 1.000000 1.000000 1.000000
vn -0.763813 -0.267504 -0.587394
v 0.758189 -0.831774 0.476030 1.000000 1.000000 1.000000
vn 0.471447 0.648277 -0.597892
v 0.858208 -0.767666 0.453776 1.000000 1.000000 1.000000
vn 0.856609 -0.406807 -0.317378
v 0.867393 -0.816517 0.474337 1.000000 1.000000 1.000000
vn -0.098733 0.344627 -0.933533
v 0.795380 -0.780286 0.419848 1.000000 1.000000 1.000000
vn -0.634868 -0.106886 -0.765191
v 0.778442 -0.785519 0.429808 1.000000 1.000000 1.000000
vn -0.112227 0.293176 0.949449
v 0.802207 -0.806385 0.578684 1.000000 1.000000 1.000000
vn -0.446281 -0.014675 0.894773
v 0.773579 -0.816715 0.577275 1.000000 1.000000 1.000000
vn 0.722225 -0.676397 -0.144493
v 0.854263 -0.871225 0.508197 1.000000 1.000000 1.000000
vn -0.529235 0.472837 0.704511
v 0.775227 -0.800518 0.565624 1.000000 1.000000 1.000000
vn 0.947903 0.035798 -0.316543
v 0.878461 -0.779441 0.459464 1.000000 1.000000 1.000000
vn -0.141046 0.595776 0.790668
v 0.794688 -0.787938 0.563869 1.000000 1.000000 1.000000
vn -0.033410 -0.492346 0.869758
v 0.821526 -0.829721 0.574775 1.000000 1.000000 1.000000
vn -0.538330 -0.476042 0.695402
v 0.764806 -0.828561 0.560560 1.000000 1.000000 1.000000
vn -0.670830 0.528912 0.519845
v 0.770163 -0.754038 0.516864 1.000000 1.000000 1.000000
vn -0.746230 0.044656 0.664189
v 0.755128 -0.813792 0.554981 1.000000 1.000000 1.000000
vn -0.444811 0.605542 0.659895
v 0.783945 -0.761009 0.537220 1.000000 1.000000 1.000000
vn -0.920282 0.086071 0.381671
v 0.745227 -0.824072 0.540796 1.000000 1.000000 1.000000
vn -0.632348 -0.571544 0.522947
v 0.755629 -0.843618 0.537282 1.000000 1.000000 1.000000
vn -0.957488 -0.249575 0.144670
v 0.741873 -0.833420 0.525248 1.000000 1.000000 1.000000
vn 0.964182 -0.255104 -0.072632
v 0.872000 -0.813367 0.493168 1.000000 1.000000 1.000000
vn -0.093255 -0.975586 0.198835
v 0.815660 -0.882967 0.499514 1.000000 1.000000 1.000000
vn -0.694899 -0.614138 0.374099
v 0.750150 -0.856086 0.518239 1.000000 1.000000 1.000000
vn -0.976867 -0.173947 -0.124388
v 0.744491 -0.840047 0.508427 1.000000 1.000000 1.000000
vn 0.004831 -0.874854 0.484362
v 0.840142 -0.867927 0.527465 1.000000 1.000000 1.000000
vn 0.498123 -0.820459 0.280571
v 0.859635 -0.868301 0.525844 1.000000 1.000000 1.000000
vn 0.631882 0.649082 -0.423576
v 0.865668 -0.751345 0.479366 1.000000 1.000000 1.000000
vn 0.899449 0.420470 -0.119145
v 0.879229 -0.765162 0.485340 1.000000 1.000000 1.000000
vn 0.979581 -0.054123 0.193628
v 0.871683 -0.808149 0.511247 1.000000 1.000000 1.000000
vn 0.833208 -0.366319 0.414216
v 0.861921 -0.856645 0.542940 1.000000 1.000000 1.000000
vn 0.294782 0.887800 0.353433
v 0.831309 -0.719489 0.513564 1.000000 1.000000 1.000000
vn -0.198342 0.933316 0.299301
v 0.807606 -0.721170 0.515334 1.000000 1.000000 1.000000
vn 0.027308 0.970718 -0.238666
v 0.803003 -0.726770 0.495855 1.000000 1.000000 1.000000
vn -0.350678 0.925311 0.144310
v 0.783588 -0.722158 0.500572 1.000000 1.000000 1.000000
vn 0.682102 0.360279 0.636345
v 0.855288 -0.765973 0.529734 1.000000 1.000000 1.000000
vn -0.092275 0.867144 -0.489436
v 0.779023 -0.735219 0.477460 1.000000 1.000000 1.000000
vn 0.918131 0.267505 0.292365
v 0.871536 -0.757663 0.504445 1.000000 1.000000 1.000000
vn -0.366560 0.569362 -0.735840
v 0.775572 -0.764367 0.436660 1.000000 1.000000 1.000000
vn 0.014249 -0.769891 0.638017
v 0.843869 -0.854553 0.546495 1.000000 1.000000 1.000000
vn 0.882174 0.146956 0.447407
v 0.866255 -0.792069 0.526205 1.000000 1.000000 1.000000
vn 0.709814 -0.248340 0.659160
v 0.859836 -0.841944 0.553436 1.000000 1.000000 1.000000
vn 0.332153 -0.914429 -0.231286
v 0.835230 -0.885974 0.496138 1.000000 1.000000 1.000000
vn 0.042823 -0.809596 -0.585423
v 0.809113 -0.878553 0.478730 1.000000 1.000000 1.000000
vn 0.580083 0.742585 0.334771
v 0.849616 -0.732717 0.515028 1.000000 1.000000 1.000000
vn 0.625521 -0.535152 -0.567746
v 0.849759 -0.834095 0.461910 1.000000 1.000000 1.000000
vn -0.274678 0.608478 0.744517
v 0.797689 -0.748000 0.533724 1.000000 1.000000 1.000000
vn 0.188233 0.552182 0.812197
v 0.823225 -0.761979 0.545621 1.000000 1.000000 1.000000
vn 0.150312 -0.609318 -0.778549
v 0.824628 -0.843759 0.453867 1.000000 1.000000 1.000000
vn 0.076532 0.561261 0.824093
v 0.813382 -0.785396 0.563145 1.000000 1.000000 1.000000
vn 0.477869 -0.470565 -0.741762
v 0.840255 -0.806850 0.431521 1.000000 1.000000 1.000000
vn 0.703208 -0.098612 -0.704112
v 0.863422 -0.793716 0.440653 1.000000 1.000000 1.000000
vn 0.409246 0.473657 0.779851
v 0.838394 -0.757853 0.537203 1.000000 1.000000 1.000000
vn 0.382449 -0.031288 -0.923447
v 0.840083 -0.791803 0.418815 1.000000 1.000000 1.000000
vn -0.211958 -0.552014 -0.806446
v 0.805350 -0.820059 0.436488 1.000000 1.000000 1.000000
vn 0.035323 -0.330691 -0.943078
v 0.819159 -0.799688 0.420659 1.000000 1.000000 1.000000
vn -0.312740 -0.317861 -0.895074
v 0.798186 -0.790630 0.419516 1.000000 1.000000 1.000000
vn 0.587562 0.396598 0.705324
v 0.849395 -0.788503 0.547719 1.000000 1.000000 1.000000
vn 0.394647 0.482022 0.782246
v 0.833245 -0.791928 0.561212 1.000000 1.000000 1.000000
vn -0.281614 -0.519346 -0.806829
v 0.790292 -0.829242 0.446912 1.000000 1.000000 1.000000
vn 0.187470 0.292837 0.937604
v 0.818298 -0.812946 0.579905 1.000000 1.000000 1.000000
vn -0.559098 -0.402575 -0.724805
v 0.779412 -0.804840 0.439133 1.000000 1.000000 1.000000
vn 0.470753 0.494981 -0.730332
v 0.849543 -0.780424 0.434782 1.000000 1.000000 1.000000
vn 0.369719 -0.338008 0.865481
v 0.844092 -0.832435 0.572289 1.000000 1.000000 1.000000
vn 0.102770 0.540811 -0.834843
v 0.819439 -0.785040 0.421542 1.000000 1.000000 1.000000
vn 0.586448 0.218670 0.779912
v 0.846047 -0.820573 0.568246 1.000000 1.000000 1.000000
# 77 vertices, 0 vertices normals


usemtl material_0
vt 0.106410 0.515476
vt 0.184524 0.593590
vt 0.106410 0.593590
f 34/1/34 5/2/5 6/3/6
vt 0.515476 0.206410
vt 0.584524 0.206410
vt 0.550000 0.240934
f 5/4/5 7/5/7 6/6/6
vt 0.093590 0.515476
vt 0.093590 0.593590
vt 0.015476 0.593590
f 5/7/5 9/8/9 7/9/7
vt 0.506410 0.284524
vt 0.506410 0.215476
vt 0.540935 0.250000
f 5/10/5 11/11/11 9/12/9
vt 0.193590 0.493590
vt 0.115476 0.493590
vt 0.193590 0.415476
f 7/13/7 9/14/9 10/15/10
vt 0.193590 0.506410
vt 0.193590 0.584524
vt 0.115476 0.506410
f 10/16/10 9/17/9 14/18/14
vt 0.093590 0.406410
vt 0.093590 0.484524
vt 0.015476 0.406410
f 9/19/9 11/20/11 14/21/14
vt 0.593590 0.984524
vt 0.509066 0.900000
vt 0.593590 0.815476
f 13/22/13 73/23/73 14/24/14
vt 0.584524 0.806410
vt 0.500000 0.890935
vt 0.415476 0.806410
f 73/25/73 10/26/10 14/27/14
vt 0.615476 0.306410
vt 0.684524 0.306410
vt 0.650000 0.340934
f 50/28/50 17/29/17 18/30/18
vt 0.215476 0.106410
vt 0.243590 0.106410
vt 0.243590 0.134524
f 18/31/18 17/32/17 68/33/68
vt 0.606410 0.384524
vt 0.606410 0.315476
vt 0.640935 0.350000
f 13/34/13 50/35/50 18/36/18
vt 0.106410 0.406410
vt 0.184524 0.406410
vt 0.106410 0.484524
f 19/37/19 20/38/20 25/39/25
vt 0.606410 0.215476
vt 0.640935 0.250000
vt 0.606410 0.284524
f 19/40/19 24/41/24 22/42/22
vt 0.284524 0.506410
vt 0.206410 0.584524
vt 0.206410 0.506410
f 19/43/19 22/44/22 20/45/20
vt 0.284524 0.493590
vt 0.206410 0.493590
vt 0.206410 0.415476
f 25/46/25 20/47/20 26/48/26
vt 0.684524 0.293590
vt 0.615476 0.293590
vt 0.650000 0.259065
f 26/49/26 22/50/22 28/51/28
vt 0.706410 0.315476
vt 0.740935 0.350000
vt 0.706410 0.384524
f 26/52/26 20/53/20 22/54/22
vt 0.606410 0.815476
vt 0.690935 0.900000
vt 0.606410 0.984524
f 28/55/28 22/56/22 27/57/27
vt 0.306410 0.593590
vt 0.306410 0.515476
vt 0.384524 0.593590
f 24/58/24 29/59/29 22/60/22
vt 0.293590 0.593590
vt 0.215476 0.593590
vt 0.293590 0.515476
f 29/61/29 27/62/27 22/63/22
vt 0.184524 0.993590
vt 0.006410 0.993590
vt 0.006410 0.815476
f 25/64/25 26/65/26 5/66/5
vt 0.615476 0.993590
vt 0.700000 0.909065
vt 0.784524 0.993590
f 26/67/26 31/68/31 5/69/5
vt 0.784524 0.393590
vt 0.715476 0.393590
vt 0.750000 0.359065
f 28/70/28 31/71/31 26/72/26
vt 0.615476 0.393590
vt 0.650000 0.359065
vt 0.684524 0.393590
f 28/73/28 30/74/30 31/75/31
vt 0.709065 0.900000
vt 0.793590 0.815476
vt 0.793590 0.984524
f 28/76/28 27/77/27 30/78/30
vt 0.693590 0.315476
vt 0.693590 0.384524
vt 0.659065 0.350000
f 31/79/31 30/80/30 32/81/32
vt 0.615476 0.806410
vt 0.784524 0.806410
vt 0.700000 0.890935
f 30/82/30 2/83/2 32/84/32
vt 0.393590 0.415476
vt 0.393590 0.493590
vt 0.315476 0.493590
f 31/85/31 35/86/35 5/87/5
vt 0.715476 0.293590
vt 0.750000 0.259065
vt 0.784524 0.293590
f 31/88/31 32/89/32 36/90/36
vt 0.793590 0.215476
vt 0.793590 0.284524
vt 0.759066 0.250000
f 31/91/31 36/92/36 35/93/35
vt 0.890935 0.900000
vt 0.806410 0.984524
vt 0.806410 0.815476
f 36/94/36 32/95/32 2/96/2
vt 0.984524 0.993590
vt 0.815476 0.993590
vt 0.900000 0.909065
f 1/97/1 30/98/30 27/99/27
vt 0.993590 0.984524
vt 0.909065 0.900000
vt 0.993590 0.815476
f 30/100/30 1/101/1 2/102/2
vt 0.984524 0.806410
vt 0.900000 0.890935
vt 0.815476 0.806410
f 2/103/2 4/104/4 36/105/36
vt 0.315476 0.506410
vt 0.393590 0.506410
vt 0.393590 0.584524
f 35/106/35 11/107/11 5/108/5
vt 0.793590 0.384524
vt 0.759066 0.350000
vt 0.793590 0.315476
f 11/109/11 35/110/35 36/111/36
vt 0.293590 0.406410
vt 0.293590 0.484524
vt 0.215476 0.406410
f 36/112/36 14/113/14 11/114/11
vt 0.006410 0.784524
vt 0.006410 0.615476
vt 0.090935 0.700000
f 36/115/36 13/116/13 14/117/14
vt 0.100000 0.709065
vt 0.184524 0.793590
vt 0.015476 0.793590
f 13/118/13 36/119/36 4/120/4
vt 0.784524 0.306410
vt 0.750000 0.340934
vt 0.715476 0.306410
f 44/121/44 43/122/43 3/123/3
vt 0.693590 0.215476
vt 0.693590 0.284524
vt 0.659065 0.250000
f 44/124/44 3/125/3 45/126/45
vt 0.650000 0.240934
vt 0.615476 0.206410
vt 0.684524 0.206410
f 44/127/44 45/128/45 12/129/12
vt 0.784524 0.206410
vt 0.750000 0.240934
vt 0.715476 0.206410
f 45/130/45 46/131/46 12/132/12
vt 0.306410 0.406410
vt 0.384524 0.406410
vt 0.306410 0.484524
f 45/133/45 3/134/3 48/135/48
vt 0.706410 0.284524
vt 0.706410 0.215476
vt 0.740935 0.250000
f 45/136/45 48/137/48 46/138/46
vt 0.193590 0.984524
vt 0.015476 0.806410
vt 0.193590 0.806410
f 3/139/3 50/140/50 48/141/48
vt 0.406410 0.506410
vt 0.484524 0.506410
vt 0.406410 0.584524
f 12/142/12 46/143/46 27/144/27
vt 0.406410 0.415476
vt 0.484524 0.493590
vt 0.406410 0.493590
f 27/145/27 46/146/46 1/147/1
vt 0.884524 0.306410
vt 0.850000 0.340934
vt 0.815476 0.306410
f 46/148/46 48/149/48 1/150/1
vt 0.840935 0.350000
vt 0.806410 0.384524
vt 0.806410 0.315476
f 1/151/1 48/152/48 2/153/2
vt 0.506410 0.593590
vt 0.506410 0.515476
vt 0.584524 0.593590
f 2/154/2 48/155/48 50/156/50
vt 0.206410 0.993590
vt 0.206410 0.815476
vt 0.384524 0.993590
f 50/157/50 3/158/3 17/159/17
vt 0.806410 0.215476
vt 0.840935 0.250000
vt 0.806410 0.284524
f 4/160/4 50/161/50 13/162/13
vt 0.815476 0.293590
vt 0.850000 0.259065
vt 0.884524 0.293590
f 50/163/50 4/164/4 2/165/2
vt 0.940935 0.350000
vt 0.906410 0.384524
vt 0.906410 0.315476
f 34/166/34 55/167/55 54/168/54
vt 0.193590 0.784524
vt 0.109065 0.700000
vt 0.193590 0.615476
f 54/169/54 60/170/60 57/171/57
vt 0.415476 0.593590
vt 0.493590 0.515476
vt 0.493590 0.593590
f 60/172/60 55/173/55 7/174/7
vt 0.015476 0.606410
vt 0.184524 0.606410
vt 0.100000 0.690935
f 60/175/60 54/176/54 55/177/55
vt 0.206410 0.615476
vt 0.290935 0.700000
vt 0.206410 0.784524
f 57/178/57 62/179/62 63/180/63
vt 0.300000 0.709065
vt 0.384524 0.793590
vt 0.215476 0.793590
f 57/181/57 60/182/60 62/183/62
vt 0.984524 0.393590
vt 0.915476 0.393590
vt 0.950000 0.359065
f 62/184/62 74/185/74 63/186/63
vt 0.815476 0.393590
vt 0.850000 0.359065
vt 0.884524 0.393590
f 62/187/62 65/188/65 74/189/74
vt 0.309065 0.700000
vt 0.393590 0.615476
vt 0.393590 0.784524
f 60/190/60 7/191/7 71/192/71
vt 0.515476 0.493590
vt 0.593590 0.415476
vt 0.593590 0.493590
f 60/193/60 71/194/71 66/195/66
vt 0.593590 0.584524
vt 0.515476 0.506410
vt 0.593590 0.506410
f 60/196/60 67/197/67 62/198/62
vt 0.415476 0.406410
vt 0.493590 0.406410
vt 0.493590 0.484524
f 60/199/60 66/200/66 67/201/67
vt 0.893590 0.315476
vt 0.893590 0.384524
vt 0.859065 0.350000
f 62/202/62 67/203/67 65/204/65
vt 0.506410 0.406410
vt 0.584524 0.406410
vt 0.506410 0.484524
f 67/205/67 66/206/66 68/207/68
vt 0.915476 0.293590
vt 0.950000 0.259065
vt 0.984524 0.293590
f 66/208/66 71/209/71 73/210/73
vt 0.606410 0.584524
vt 0.606410 0.506410
vt 0.684524 0.506410
f 66/211/66 73/212/73 68/213/68
vt 0.993590 0.215476
vt 0.993590 0.284524
vt 0.959065 0.250000
f 34/214/34 6/215/6 55/216/55
vt 0.959065 0.350000
vt 0.993590 0.315476
vt 0.993590 0.384524
f 6/217/6 7/218/7 55/219/55
vt 0.606410 0.415476
vt 0.684524 0.493590
vt 0.606410 0.493590
f 10/220/10 73/221/73 71/222/71
vt 0.784524 0.593590
vt 0.706410 0.593590
vt 0.706410 0.515476
f 7/223/7 10/224/10 71/225/71
vt 0.984524 0.306410
vt 0.950000 0.340934
vt 0.915476 0.306410
f 74/226/74 65/227/65 76/228/76
vt 0.859065 0.250000
vt 0.893590 0.215476
vt 0.893590 0.284524
f 76/229/76 65/230/65 67/231/67
vt 0.850000 0.240934
vt 0.815476 0.206410
vt 0.884524 0.206410
f 76/232/76 67/233/67 17/234/17
vt 0.256410 0.134524
vt 0.256410 0.106410
vt 0.284524 0.106410
f 67/235/67 68/236/68 17/237/17
vt 0.915476 0.206410
vt 0.984524 0.206410
vt 0.950000 0.240934
f 68/238/68 73/239/73 18/240/18
vt 0.906410 0.215476
vt 0.940935 0.250000
vt 0.906410 0.284524
f 13/241/13 18/242/18 73/243/73
vt 0.015476 0.106410
vt 0.084524 0.106410
vt 0.050000 0.140934
f 77/244/77 72/245/72 25/246/25
vt 0.006410 0.184524
vt 0.006410 0.115476
vt 0.040935 0.150000
f 77/247/77 25/248/25 75/249/75
vt 0.615476 0.593590
vt 0.693590 0.515476
vt 0.693590 0.593590
f 77/250/77 70/251/70 72/252/72
vt 0.793590 0.415476
vt 0.793590 0.493590
vt 0.715476 0.493590
f 69/253/69 70/254/70 77/255/77
vt 0.793590 0.506410
vt 0.793590 0.584524
vt 0.715476 0.506410
f 70/256/70 61/257/61 72/258/72
vt 0.615476 0.406410
vt 0.693590 0.406410
vt 0.693590 0.484524
f 69/259/69 52/260/52 47/261/47
vt 0.706410 0.484524
vt 0.706410 0.406410
vt 0.784524 0.406410
f 69/262/69 47/263/47 64/264/64
vt 0.806410 0.584524
vt 0.806410 0.506410
vt 0.884524 0.506410
f 69/265/69 64/266/64 59/267/59
vt 0.806410 0.415476
vt 0.884524 0.493590
vt 0.806410 0.493590
f 69/268/69 59/269/59 70/270/70
vt 0.906410 0.515476
vt 0.984524 0.593590
vt 0.906410 0.593590
f 70/271/70 59/272/59 61/273/61
vt 0.893590 0.593590
vt 0.815476 0.593590
vt 0.893590 0.515476
f 59/274/59 58/275/58 61/276/61
vt 0.993590 0.415476
vt 0.993590 0.493590
vt 0.915476 0.493590
f 56/277/56 64/278/64 47/279/47
vt 0.993590 0.506410
vt 0.993590 0.584524
vt 0.915476 0.506410
f 56/280/56 43/281/43 64/282/64
vt 0.893590 0.406410
vt 0.893590 0.484524
vt 0.815476 0.406410
f 64/283/64 43/284/43 59/285/59
vt 0.300000 0.690935
vt 0.215476 0.606410
vt 0.384524 0.606410
f 77/286/77 53/287/53 52/288/52
vt 0.040935 0.050000
vt 0.006410 0.084524
vt 0.006410 0.015476
f 75/289/75 53/290/53 77/291/77
vt 0.084524 0.093590
vt 0.015476 0.093590
vt 0.050000 0.059065
f 75/292/75 51/293/51 53/294/53
vt 0.984524 0.406410
vt 0.906410 0.484524
vt 0.906410 0.406410
f 25/295/25 51/296/51 75/297/75
vt 0.006410 0.306410
vt 0.084524 0.306410
vt 0.006410 0.384524
f 69/298/69 77/299/77 52/300/52
vt 0.084524 0.293590
vt 0.006410 0.293590
vt 0.006410 0.215476
f 49/301/49 47/302/47 52/303/52
vt 0.106410 0.315476
vt 0.184524 0.393590
vt 0.106410 0.393590
f 47/304/47 8/305/8 56/306/56
vt 0.106410 0.115476
vt 0.140935 0.150000
vt 0.106410 0.184524
f 47/307/47 49/308/49 8/309/8
vt 0.184524 0.193590
vt 0.115476 0.193590
vt 0.150000 0.159065
f 53/310/53 51/311/51 42/312/42
vt 0.015476 0.393590
vt 0.093590 0.315476
vt 0.093590 0.393590
f 42/313/42 52/314/52 53/315/53
vt 0.406410 0.615476
vt 0.490935 0.700000
vt 0.406410 0.784524
f 42/316/42 41/317/41 52/318/52
vt 0.193590 0.215476
vt 0.193590 0.293590
vt 0.115476 0.293590
f 41/319/41 40/320/40 49/321/49
vt 0.193590 0.306410
vt 0.193590 0.384524
vt 0.115476 0.306410
f 52/322/52 41/323/41 49/324/49
vt 0.015476 0.193590
vt 0.050000 0.159065
vt 0.084524 0.193590
f 49/325/49 40/326/40 39/327/39
vt 0.093590 0.115476
vt 0.093590 0.184524
vt 0.059065 0.150000
f 49/328/49 39/329/39 8/330/8
vt 0.115476 0.093590
vt 0.150000 0.059065
vt 0.184524 0.093590
f 51/331/51 37/332/37 38/333/38
vt 0.193590 0.015476
vt 0.193590 0.084524
vt 0.159065 0.050000
f 51/334/51 38/335/38 42/336/42
vt 0.584524 0.793590
vt 0.415476 0.793590
vt 0.500000 0.709065
f 51/337/51 5/338/5 37/339/37
vt 0.593590 0.784524
vt 0.509066 0.700000
vt 0.593590 0.615476
f 42/340/42 38/341/38 33/342/33
vt 0.093590 0.284524
vt 0.015476 0.206410
vt 0.093590 0.206410
f 42/343/42 33/344/33 41/345/41
vt 0.106410 0.284524
vt 0.106410 0.206410
vt 0.184524 0.206410
f 41/346/41 33/347/33 23/348/23
vt 0.415476 0.606410
vt 0.584524 0.606410
vt 0.500000 0.690935
f 41/349/41 23/350/23 40/351/40
vt 0.206410 0.384524
vt 0.206410 0.306410
vt 0.284524 0.306410
f 40/352/40 23/353/23 15/354/15
vt 0.206410 0.215476
vt 0.284524 0.293590
vt 0.206410 0.293590
f 40/355/40 15/356/15 39/357/39
vt 0.193590 0.115476
vt 0.193590 0.184524
vt 0.159065 0.150000
f 37/358/37 21/359/21 38/360/38
vt 0.606410 0.615476
vt 0.690935 0.700000
vt 0.606410 0.784524
f 38/361/38 21/362/21 33/363/33
vt 0.615476 0.793590
vt 0.700000 0.709065
vt 0.784524 0.793590
f 5/364/5 34/365/34 37/366/37
vt 0.709065 0.700000
vt 0.793590 0.615476
vt 0.793590 0.784524
f 33/367/33 21/368/21 16/369/16
vt 0.384524 0.393590
vt 0.306410 0.393590
vt 0.306410 0.315476
f 33/370/33 16/371/16 23/372/23
vt 0.206410 0.156410
vt 0.234524 0.156410
vt 0.206410 0.184524
f 72/373/72 19/374/19 25/375/25
vt 0.293590 0.315476
vt 0.293590 0.393590
vt 0.215476 0.393590
f 72/376/72 61/377/61 24/378/24
vt 0.115476 0.106410
vt 0.184524 0.106410
vt 0.150000 0.140934
f 72/379/72 24/380/24 19/381/19
vt 0.315476 0.293590
vt 0.393590 0.215476
vt 0.393590 0.293590
f 24/382/24 58/383/58 29/384/29
vt 0.315476 0.306410
vt 0.393590 0.306410
vt 0.393590 0.384524
f 24/385/24 61/386/61 58/387/58
vt 0.215476 0.806410
vt 0.393590 0.806410
vt 0.393590 0.984524
f 5/388/5 51/389/51 25/390/25
vt 0.784524 0.606410
vt 0.700000 0.690935
vt 0.615476 0.606410
f 43/391/43 44/392/44 59/393/59
vt 0.059065 0.050000
vt 0.093590 0.015476
vt 0.093590 0.084524
f 12/394/12 58/395/58 44/396/44
vt 0.293590 0.206410
vt 0.293590 0.284524
vt 0.215476 0.206410
f 58/397/58 59/398/59 44/399/44
vt 0.384524 0.206410
vt 0.306410 0.284524
vt 0.306410 0.206410
f 8/400/8 3/401/3 56/402/56
vt 0.015476 0.006410
vt 0.084524 0.006410
vt 0.050000 0.040935
f 56/403/56 3/404/3 43/405/43
vt 0.406410 0.384524
vt 0.406410 0.306410
vt 0.484524 0.306410
f 3/406/3 8/407/8 39/408/39
vt 0.890935 0.700000
vt 0.806410 0.784524
vt 0.806410 0.615476
f 39/409/39 15/410/15 3/411/3
vt 0.406410 0.293590
vt 0.406410 0.215476
vt 0.484524 0.293590
f 21/412/21 37/413/37 54/414/54
vt 0.900000 0.709065
vt 0.984524 0.793590
vt 0.815476 0.793590
f 21/415/21 54/416/54 57/417/57
vt 0.584524 0.393590
vt 0.506410 0.393590
vt 0.506410 0.315476
f 34/418/34 54/419/54 37/420/37
vt 0.993590 0.615476
vt 0.993590 0.784524
vt 0.909065 0.700000
f 16/421/16 21/422/21 57/423/57
vt 0.493590 0.393590
vt 0.415476 0.393590
vt 0.493590 0.315476
f 16/424/16 57/425/57 63/426/63
vt 0.593590 0.293590
vt 0.515476 0.293590
vt 0.593590 0.215476
f 63/427/63 23/428/23 16/429/16
vt 0.515476 0.306410
vt 0.593590 0.306410
vt 0.593590 0.384524
f 15/430/15 23/431/23 63/432/63
vt 0.115476 0.006410
vt 0.184524 0.006410
vt 0.150000 0.040935
f 15/433/15 63/434/63 74/435/74
vt 0.493590 0.284524
vt 0.415476 0.206410
vt 0.493590 0.206410
f 27/436/27 58/437/58 12/438/12
vt 0.106410 0.015476
vt 0.140935 0.050000
vt 0.106410 0.084524
f 27/439/27 29/440/29 58/441/58
vt 0.984524 0.606410
vt 0.900000 0.690935
vt 0.815476 0.606410
f 3/442/3 15/443/15 74/444/74
vt 0.584524 0.993590
vt 0.406410 0.993590
vt 0.406410 0.815476
f 3/445/3 74/446/74 76/447/76
vt 0.006410 0.415476
vt 0.090935 0.500000
vt 0.006410 0.584524
f 3/448/3 76/449/76 17/450/17
# 150 faces, 450 coords texture

# End of File
